<?xml version="1.0" encoding="UTF-8"?>
<svg xmlns="http://www.w3.org/2000/svg" width="360" height="262" viewBox="0 0 360 262">
<rect width="360" height="262" fill="#fbfcfe"/>
<text x="180" y="20" font-size="15" fill="#2b2d42" text-anchor="middle" font-family="sans-serif" font-weight="bold">3x3 matrix</text>
<rect x="75" y="45" width="60" height="60" rx="6" fill="#ffffff" stroke="#2b2d42" stroke-width="3"/>
<polygon points="121,75 105,91 89,75 105,59" fill="#4a90d9" stroke="#2b2d42" stroke-width="3"/>
<rect x="145" y="45" width="60" height="60" rx="6" fill="#ffffff" stroke="#2b2d42" stroke-width="3"/>
<polygon points="205,75 175,105 145,75 175,45" fill="#4a90d9" stroke="#2b2d42" stroke-width="3"/>
<rect x="215" y="45" width="60" height="60" rx="6" fill="#ffffff" stroke="#2b2d42" stroke-width="3"/>
<polygon points="261,75 245,91 229,75 245,59" fill="#4a90d9" stroke="#2b2d42" stroke-width="3"/>
<rect x="75" y="115" width="60" height="60" rx="6" fill="#ffffff" stroke="#2b2d42" stroke-width="3"/>
<circle cx="105" cy="145" r="16" fill="#4a90d9" stroke="#2b2d42" stroke-width="3"/>
<rect x="145" y="115" width="60" height="60" rx="6" fill="#ffffff" stroke="#2b2d42" stroke-width="3"/>
<circle cx="175" cy="145" r="30" fill="#4a90d9" stroke="#2b2d42" stroke-width="3"/>
<rect x="215" y="115" width="60" height="60" rx="6" fill="#ffffff" stroke="#2b2d42" stroke-width="3"/>
<circle cx="245" cy="145" r="16" fill="#4a90d9" stroke="#2b2d42" stroke-width="3"/>
<rect x="75" y="185" width="60" height="60" rx="6" fill="#ffffff" stroke="#2b2d42" stroke-width="3"/>
<polygon points="105,199 120.217,210.056 114.405,227.944 95.5954,227.944 89.7831,210.056" fill="#4a90d9" stroke="#2b2d42" stroke-width="3"/>
<rect x="145" y="185" width="60" height="60" rx="6" fill="#ffffff" stroke="#2b2d42" stroke-width="3"/>
<polygon points="175,185 203.532,205.729 192.634,239.271 157.366,239.271 146.468,205.729" fill="#4a90d9" stroke="#2b2d42" stroke-width="3"/>
<rect x="215" y="185" width="60" height="60" rx="6" fill="#ffffff" stroke="#2b2d42" stroke-width="3"/>
<text x="245" y="215" font-size="34" fill="#e4572e" text-anchor="middle" font-family="sans-serif" font-weight="bold">?</text>
</svg>