<?xml version="1.0" encoding="UTF-8"?>
<svg xmlns="http://www.w3.org/2000/svg" width="360" height="300" viewBox="0 0 360 300">
<rect width="360" height="300" fill="#fbfcfe"/>
<text x="180" y="24" font-size="16" fill="#2b2d42" text-anchor="middle" font-family="sans-serif" font-weight="bold">Which net can fold into a cube?</text>
<g fill="#ffffff" stroke="#2b2d42" stroke-width="2">
<text x="30" y="60" font-size="16" fill="#2b2d42" stroke="none" font-family="sans-serif" font-weight="bold">A</text>
<rect x="60" y="70" width="18" height="18"/>
<rect x="78" y="70" width="18" height="18"/>
<rect x="96" y="70" width="18" height="18"/>
<rect x="78" y="52" width="18" height="18"/>
<rect x="78" y="88" width="18" height="18"/>
<text x="30" y="130" font-size="12" fill="#9aa0a6" stroke="none" font-family="sans-serif">5 squares</text>
<text x="200" y="60" font-size="16" fill="#2b2d42" stroke="none" font-family="sans-serif" font-weight="bold">B</text>
<rect x="230" y="70" width="18" height="18"/>
<rect x="248" y="70" width="18" height="18"/>
<rect x="266" y="70" width="18" height="18"/>
<rect x="284" y="70" width="18" height="18"/>
<rect x="248" y="52" width="18" height="18"/>
<rect x="266" y="88" width="18" height="18"/>
<text x="200" y="130" font-size="12" fill="#9aa0a6" stroke="none" font-family="sans-serif">6 squares</text>
<text x="30" y="170" font-size="16" fill="#2b2d42" stroke="none" font-family="sans-serif" font-weight="bold">C</text>
<rect x="60" y="180" width="18" height="18"/>
<rect x="78" y="180" width="18" height="18"/>
<rect x="96" y="180" width="18" height="18"/>
<rect x="114" y="180" width="18" height="18"/>
<rect x="132" y="180" width="18" height="18"/>
<rect x="150" y="180" width="18" height="18"/>
<text x="30" y="240" font-size="12" fill="#9aa0a6" stroke="none" font-family="sans-serif">straight row of 6</text>
<text x="200" y="170" font-size="16" fill="#2b2d42" stroke="none" font-family="sans-serif" font-weight="bold">D</text>
<rect x="230" y="180" width="18" height="18"/>
<rect x="248" y="180" width="18" height="18"/>
<rect x="266" y="180" width="18" height="18"/>
<rect x="284" y="180" width="18" height="18"/>
<rect x="302" y="180" width="18" height="18"/>
<rect x="320" y="180" width="18" height="18"/>
<rect x="266" y="198" width="18" height="18"/>
<text x="200" y="240" font-size="12" fill="#9aa0a6" stroke="none" font-family="sans-serif">7 squares</text>
</g>
</svg>
