<?xml version="1.0" encoding="UTF-8"?>
<svg xmlns="http://www.w3.org/2000/svg" width="360" height="262" viewBox="0 0 360 262">
<rect width="360" height="262" fill="#fbfcfe"/>
<text x="180" y="22" font-size="15" fill="#2b2d42" text-anchor="middle" font-family="sans-serif" font-weight="bold">Count sequence (dots)</text>
<circle cx="40" cy="130" r="5" fill="#2b2d42" stroke="None" stroke-width="0"/>
<text x="40" y="170" font-size="14" fill="#2b2d42" text-anchor="middle" font-family="sans-serif" font-weight="bold">1</text>
<text x="68" y="130" font-size="16" fill="#9aa0a6" text-anchor="middle" font-family="sans-serif" font-weight="bold">-&gt;</text>
<circle cx="91.5" cy="130" r="5" fill="#2b2d42" stroke="None" stroke-width="0"/>
<circle cx="100.5" cy="130" r="5" fill="#2b2d42" stroke="None" stroke-width="0"/>
<text x="96" y="170" font-size="14" fill="#2b2d42" text-anchor="middle" font-family="sans-serif" font-weight="bold">2</text>
<text x="124" y="130" font-size="16" fill="#9aa0a6" text-anchor="middle" font-family="sans-serif" font-weight="bold">-&gt;</text>
<circle cx="138.5" cy="130" r="5" fill="#2b2d42" stroke="None" stroke-width="0"/>
<circle cx="147.5" cy="130" r="5" fill="#2b2d42" stroke="None" stroke-width="0"/>
<circle cx="156.5" cy="130" r="5" fill="#2b2d42" stroke="None" stroke-width="0"/>
<circle cx="165.5" cy="130" r="5" fill="#2b2d42" stroke="None" stroke-width="0"/>
<text x="152" y="170" font-size="14" fill="#2b2d42" text-anchor="middle" font-family="sans-serif" font-weight="bold">4</text>
<text x="180" y="130" font-size="16" fill="#9aa0a6" text-anchor="middle" font-family="sans-serif" font-weight="bold">-&gt;</text>
<circle cx="176.5" cy="130" r="5" fill="#2b2d42" stroke="None" stroke-width="0"/>
<circle cx="185.5" cy="130" r="5" fill="#2b2d42" stroke="None" stroke-width="0"/>
<circle cx="194.5" cy="130" r="5" fill="#2b2d42" stroke="None" stroke-width="0"/>
<circle cx="203.5" cy="130" r="5" fill="#2b2d42" stroke="None" stroke-width="0"/>
<circle cx="212.5" cy="130" r="5" fill="#2b2d42" stroke="None" stroke-width="0"/>
<circle cx="221.5" cy="130" r="5" fill="#2b2d42" stroke="None" stroke-width="0"/>
<circle cx="230.5" cy="130" r="5" fill="#2b2d42" stroke="None" stroke-width="0"/>
<circle cx="239.5" cy="130" r="5" fill="#2b2d42" stroke="None" stroke-width="0"/>
<text x="208" y="170" font-size="14" fill="#2b2d42" text-anchor="middle" font-family="sans-serif" font-weight="bold">8</text>
<text x="236" y="130" font-size="16" fill="#9aa0a6" text-anchor="middle" font-family="sans-serif" font-weight="bold">-&gt;</text>
<circle cx="232.5" cy="130" r="5" fill="#2b2d42" stroke="None" stroke-width="0"/>
<circle cx="241.5" cy="130" r="5" fill="#2b2d42" stroke="None" stroke-width="0"/>
<circle cx="250.5" cy="130" r="5" fill="#2b2d42" stroke="None" stroke-width="0"/>
<circle cx="259.5" cy="130" r="5" fill="#2b2d42" stroke="None" stroke-width="0"/>
<circle cx="268.5" cy="130" r="5" fill="#2b2d42" stroke="None" stroke-width="0"/>
<circle cx="277.5" cy="130" r="5" fill="#2b2d42" stroke="None" stroke-width="0"/>
<circle cx="286.5" cy="130" r="5" fill="#2b2d42" stroke="None" stroke-width="0"/>
<circle cx="295.5" cy="130" r="5" fill="#2b2d42" stroke="None" stroke-width="0"/>
<text x="264" y="130" font-size="14" fill="#2b2d42" text-anchor="middle" font-family="sans-serif" font-weight="bold">...</text>
<text x="264" y="170" font-size="14" fill="#2b2d42" text-anchor="middle" font-family="sans-serif" font-weight="bold">16</text>
<text x="292" y="130" font-size="16" fill="#9aa0a6" text-anchor="middle" font-family="sans-serif" font-weight="bold">-&gt;</text>
<circle cx="288.5" cy="130" r="5" fill="#2b2d42" stroke="None" stroke-width="0"/>
<circle cx="297.5" cy="130" r="5" fill="#2b2d42" stroke="None" stroke-width="0"/>
<circle cx="306.5" cy="130" r="5" fill="#2b2d42" stroke="None" stroke-width="0"/>
<circle cx="315.5" cy="130" r="5" fill="#2b2d42" stroke="None" stroke-width="0"/>
<circle cx="324.5" cy="130" r="5" fill="#2b2d42" stroke="None" stroke-width="0"/>
<circle cx="333.5" cy="130" r="5" fill="#2b2d42" stroke="None" stroke-width="0"/>
<circle cx="342.5" cy="130" r="5" fill="#2b2d42" stroke="None" stroke-width="0"/>
<circle cx="351.5" cy="130" r="5" fill="#2b2d42" stroke="None" stroke-width="0"/>
<text x="320" y="130" font-size="14" fill="#2b2d42" text-anchor="middle" font-family="sans-serif" font-weight="bold">...</text>
<text x="320" y="170" font-size="14" fill="#2b2d42" text-anchor="middle" font-family="sans-serif" font-weight="bold">32</text>
<text x="320" y="195" font-size="12" fill="#e4572e" text-anchor="middle" font-family="sans-serif" font-weight="bold">next</text>
</svg>