<?xml version="1.0" encoding="UTF-8"?>
<svg xmlns="http://www.w3.org/2000/svg" width="360" height="262" viewBox="0 0 360 262">
<rect width="360" height="262" fill="#fbfcfe"/>
<text x="180" y="20" font-size="15" fill="#2b2d42" text-anchor="middle" font-family="sans-serif" font-weight="bold">3x3 matrix</text>
<rect x="75" y="45" width="60" height="60" rx="6" fill="#ffffff" stroke="#2b2d42" stroke-width="3"/>
<polygon points="135,75 105,105 75,75 105,45" fill="#4a90d9" stroke="#2b2d42" stroke-width="3"/>
<rect x="145" y="45" width="60" height="60" rx="6" fill="#ffffff" stroke="#2b2d42" stroke-width="3"/>
<polygon points="191,75 175,91 159,75 175,59" fill="#4a90d9" stroke="#2b2d42" stroke-width="3"/>
<rect x="215" y="45" width="60" height="60" rx="6" fill="#ffffff" stroke="#2b2d42" stroke-width="3"/>
<polygon points="275,75 245,105 215,75 245,45" fill="#4a90d9" stroke="#2b2d42" stroke-width="3"/>
<rect x="75" y="115" width="60" height="60" rx="6" fill="#ffffff" stroke="#2b2d42" stroke-width="3"/>
<polygon points="135,145 105,175 75,145 105,115" fill="#3bb273" stroke="#2b2d42" stroke-width="3"/>
<rect x="145" y="115" width="60" height="60" rx="6" fill="#ffffff" stroke="#2b2d42" stroke-width="3"/>
<polygon points="191,145 175,161 159,145 175,129" fill="#3bb273" stroke="#2b2d42" stroke-width="3"/>
<rect x="215" y="115" width="60" height="60" rx="6" fill="#ffffff" stroke="#2b2d42" stroke-width="3"/>
<polygon points="275,145 245,175 215,145 245,115" fill="#3bb273" stroke="#2b2d42" stroke-width="3"/>
<rect x="75" y="185" width="60" height="60" rx="6" fill="#ffffff" stroke="#2b2d42" stroke-width="3"/>
<polygon points="135,215 105,245 75,215 105,185" fill="#e4572e" stroke="#2b2d42" stroke-width="3"/>
<rect x="145" y="185" width="60" height="60" rx="6" fill="#ffffff" stroke="#2b2d42" stroke-width="3"/>
<polygon points="191,215 175,231 159,215 175,199" fill="#e4572e" stroke="#2b2d42" stroke-width="3"/>
<rect x="215" y="185" width="60" height="60" rx="6" fill="#ffffff" stroke="#2b2d42" stroke-width="3"/>
<text x="245" y="215" font-size="34" fill="#e4572e" text-anchor="middle" font-family="sans-serif" font-weight="bold">?</text>
</svg>